<?xml version="1.0" standalone="no"?>
<!DOCTYPE svg PUBLIC "-//W3C//DTD SVG 20010904//EN"
 "http://www.w3.org/TR/2001/REC-SVG-20010904/DTD/svg10.dtd">
<svg version="1.0" xmlns="http://www.w3.org/2000/svg"
 width="512.000000pt" height="512.000000pt" viewBox="0 0 512.000000 512.000000"
 preserveAspectRatio="xMidYMid meet">
<metadata>
Created by potrace 1.14, written by Peter Selinger 2001-2017
</metadata>
<g transform="translate(0.000000,512.000000) scale(0.100000,-0.100000)"
fill="#000000" stroke="none">
<path d="M0 2560 l0 -2560 2560 0 2560 0 0 2560 0 2560 -2560 0 -2560 0 0
-2560z m2925 2311 c593 -105 1129 -450 1469 -948 51 -75 54 -102 15 -124 -32
-17 -57 -1 -99 60 -302 446 -805 785 -1329 895 -467 99 -943 35 -1386 -186
-127 -64 -244 -136 -353 -219 -68 -51 -92 -56 -119 -21 -30 38 -5 65 172 184
291 196 665 334 1020 377 136 16 472 6 610 -18z m-83 -296 c220 -33 467 -109
647 -198 117 -58 137 -79 118 -117 -19 -38 -47 -35 -144 13 -270 135 -537 203
-848 214 -348 13 -661 -53 -960 -201 -233 -115 -402 -238 -593 -434 -114 -117
-124 -124 -146 -114 -32 14 -40 44 -22 79 18 35 220 236 306 305 333 265 770
438 1195 472 91 7 342 -4 447 -19z m-842 -607 c0 -7 -23 -118 -50 -247 -28
-128 -50 -239 -50 -247 0 -12 38 -14 215 -14 l215 0 -1 -22 c0 -13 -17 -102
-37 -198 l-37 -175 -222 -3 -221 -2 -6 -28 c-3 -15 -54 -245 -112 -512 -120
-550 -130 -627 -92 -700 17 -33 35 -51 73 -70 45 -23 60 -25 183 -25 128 0
133 -1 128 -20 -3 -11 -21 -96 -41 -189 -19 -94 -37 -171 -38 -172 -11 -12
-213 -25 -302 -21 -203 11 -343 64 -440 168 -81 88 -99 144 -99 299 0 122 4
140 122 687 67 310 122 567 122 573 0 6 -57 10 -155 10 -85 0 -155 2 -155 4 0
13 81 379 86 387 3 5 75 9 159 9 152 0 155 0 160 23 3 12 26 121 50 242 25
121 48 228 51 238 5 16 26 17 250 17 189 0 244 -3 244 -12z m1395 -478 c329
-65 569 -300 593 -577 l5 -63 -227 0 -226 0 0 23 c0 13 -14 52 -31 86 -58 117
-172 180 -338 189 -112 5 -184 -8 -264 -51 -69 -36 -105 -80 -123 -146 -21
-82 -1 -145 63 -201 51 -46 124 -76 363 -154 329 -107 474 -190 559 -317 52
-78 72 -142 78 -254 19 -343 -221 -611 -627 -698 -126 -27 -374 -29 -504 -3
-108 21 -225 63 -314 112 -100 55 -229 189 -275 284 -41 83 -67 175 -67 232
l0 38 235 0 c144 0 235 -4 235 -10 0 -33 48 -127 87 -170 87 -96 227 -146 393
-137 210 10 350 119 350 271 0 129 -46 161 -391 275 -329 109 -468 186 -563
312 -69 91 -88 152 -94 294 -5 141 10 212 65 318 42 80 145 186 227 236 208
125 510 167 791 111z m783 -2126 c38 -26 28 -57 -46 -141 -264 -299 -660 -538
-1065 -642 -188 -49 -311 -64 -522 -64 -345 0 -652 70 -945 216 -101 50 -126
66 -128 85 -4 25 22 62 43 62 7 0 64 -25 128 -55 216 -103 459 -171 696 -196
142 -15 411 -7 541 17 445 78 824 283 1147 618 62 64 116 116 120 116 5 0 19
-7 31 -16z m-3434 -76 c14 -18 53 -71 88 -118 81 -110 247 -281 362 -374 302
-245 634 -396 1021 -463 140 -24 490 -24 630 0 363 64 697 203 959 401 101 76
112 81 142 61 37 -24 31 -57 -18 -97 -266 -216 -636 -383 -1000 -452 -217 -41
-541 -46 -748 -11 -594 99 -1115 428 -1474 929 -61 85 -68 116 -34 140 32 23
44 20 72 -16z"/>
</g>
</svg>
